# Blender v2.78 (sub 0) OBJ File: ''
# www.blender.org
mtllib king.mtl
o PM3D_CHESS_SET_3_PM3D_CHESS_SET_3.006
v 0.230886 2.440797 0.248203
v 0.084177 1.229652 0.372965
v 0.257191 1.215969 0.287031
v 0.112312 1.112908 -0.373443
v 0.088693 2.500725 -0.326177
v 0.248548 2.502499 -0.226868
v 0.085947 2.501593 0.324795
v -0.265770 1.186262 -0.284453
v -0.369256 1.167118 -0.120469
v -0.248531 2.506829 -0.234662
v -0.727172 0.023195 0.432296
v -0.804169 -0.126929 0.108556
v -0.489314 -0.143595 0.599459
v -0.067450 1.200229 0.374755
v -0.087725 2.506457 0.327238
v -0.259726 1.320848 0.282694
v 0.082173 3.615347 -0.186769
v 0.583173 3.504812 -0.147055
v 0.320655 3.501386 -0.500332
v -0.338796 2.502025 0.001188
v 0.325494 2.505035 -0.080961
v 0.371107 1.268966 -0.087032
v 0.286184 1.127359 -0.264162
v -0.523805 -0.135192 -0.634951
v 0.608661 -0.140156 -0.551027
v 0.092141 -0.079896 -0.841676
v -0.373488 0.767004 -0.244628
v -0.651420 0.301460 -0.401726
v -0.449564 0.773883 0.019442
v 0.671936 0.127119 0.130268
v 0.792375 0.020314 0.285073
v 0.819219 0.028613 -0.166079
v 0.449454 0.769125 -0.026550
v 0.665215 0.298637 -0.384689
v 0.315568 0.760667 -0.334802
v 0.455672 3.323858 0.472272
v 0.163155 2.847972 0.288136
v 0.317926 2.850926 0.117100
v -0.332003 2.848936 0.050117
v -0.585574 3.243614 -0.157935
v -0.245685 2.849542 -0.243308
v 0.261106 3.597110 0.151054
v 0.281127 3.457277 0.597478
v 0.610903 3.449352 0.264938
v -0.075794 3.373454 0.667022
v -0.371120 3.403047 0.581097
v -0.040583 2.864148 0.341860
v 0.209819 3.364339 -0.640753
v 0.496187 3.371870 -0.464016
v 0.154477 2.853414 -0.297618
v 0.597145 3.259518 0.145806
v -0.487945 3.403923 -0.488707
v -0.155834 3.344809 -0.650512
v -0.031314 2.856966 -0.340313
v 0.329481 0.776195 0.304387
v 0.156157 0.315997 0.746974
v 0.499762 0.285719 0.582183
v 0.127395 0.123462 0.679580
v -0.205748 0.286208 0.737885
v -0.293643 0.135680 0.639740
v -0.692377 0.126433 -0.017813
v -0.756918 0.286426 -0.100370
v -0.588844 0.124389 -0.374321
v -0.313393 0.787114 0.314820
v -0.537463 0.313847 0.542936
v -0.272147 2.859170 0.213464
v -0.565912 3.374127 0.365398
v -0.589486 3.236528 0.132501
v 0.006458 3.480831 -0.633514
v -0.477099 3.519214 -0.355157
v 0.815598 -0.108058 -0.009574
v 0.659008 -0.137673 0.425952
v 0.159117 0.028301 0.822017
v -0.554815 3.504115 0.226376
v -0.154474 3.621972 0.048341
v -0.064109 3.530478 0.555808
v 0.320906 2.506341 0.109988
v 0.322679 2.859198 -0.120781
v 0.035378 0.299360 -0.775820
v -0.389392 0.296629 -0.663038
v -0.219362 0.772240 -0.385070
v 0.414770 0.301897 -0.640050
v 0.018934 0.745015 -0.460808
v -0.079051 1.205927 -0.378705
v -0.265773 2.501872 0.209434
v 0.007014 0.763235 0.456384
v 0.657287 3.371077 -0.156855
v -0.851600 0.007723 -0.137066
v -0.308215 0.130432 -0.619866
v -0.634693 0.041919 -0.520333
v -0.738019 0.304770 0.186479
v -0.376020 1.218897 0.075186
v 0.341803 -0.126286 0.725918
v 0.556448 0.011557 0.634858
v -0.371479 0.022905 0.757287
v -0.128793 -0.093262 0.818916
v 0.763434 0.287658 -0.008594
v 0.706191 0.295551 0.288168
v 0.366375 1.245208 0.107460
v -0.213520 2.541896 -0.445473
v -0.434481 2.637042 -0.199201
v -0.495999 2.542886 0.022968
v -0.275206 2.570929 0.404943
v 0.560148 0.035665 -0.625575
v 0.644344 0.128544 -0.269202
v 0.338003 2.567527 0.368580
v 0.334245 2.670224 -0.305079
v 0.445226 2.669562 0.083864
v 0.148438 2.555726 -0.466777
v 0.471344 2.544796 -0.118732
v -0.674015 3.418020 -0.017254
v 0.047380 2.529881 0.478374
v 0.134846 3.250507 0.591843
v -0.082762 2.498171 -0.323980
v 0.039397 0.133942 -0.693839
v 0.373905 0.128167 -0.582942
v 0.068711 0.053778 -0.812222
v -0.365648 0.030307 -0.755737
v -0.617763 0.125865 0.317963
v 0.496131 0.134876 0.490752
vn 0.4469 0.0379 0.8938
vn 0.5270 0.0379 -0.8490
vn 0.4776 0.0326 0.8780
vn -0.8469 0.0311 -0.5308
vn -0.7011 -0.5685 0.4304
vn -0.4181 0.0265 0.9080
vn 0.2254 0.9581 -0.1768
vn -0.9330 0.0537 -0.3560
vn 0.8899 0.0351 -0.4547
vn -0.0039 -1.0000 -0.0067
vn 0.0123 -0.9745 -0.2240
vn -0.7945 0.5564 -0.2434
vn 0.6247 0.7791 0.0515
vn 0.7336 0.5913 -0.3349
vn 0.6077 -0.5824 0.5399
vn -0.7614 -0.6079 -0.2252
vn 0.2975 0.9148 0.2732
vn -0.2855 -0.5297 0.7987
vn 0.4555 -0.5298 -0.7154
vn 0.7341 -0.5314 0.4228
vn -0.4474 -0.5182 -0.7289
vn -0.3238 -0.5651 -0.7588
vn 0.3994 0.5529 0.7313
vn -0.0959 -0.5038 0.8585
vn -0.8492 -0.4684 -0.2439
vn -0.3913 0.5433 0.7428
vn -0.7432 -0.5404 0.3945
vn -0.0820 0.9581 -0.2746
vn 0.8409 -0.4687 0.2705
vn -0.0289 0.8282 0.5597
vn -0.2880 0.9575 -0.0136
vn -0.1905 0.9596 0.2069
vn 0.9990 0.0367 0.0238
vn 0.6022 -0.5748 -0.5540
vn -0.2177 0.5493 -0.8067
vn 0.2727 0.5731 -0.7728
vn -0.1916 0.5618 -0.8048
vn 0.0443 0.0348 -0.9984
vn -0.5520 0.0488 0.8324
vn -0.3914 -0.5632 0.7278
vn 0.3250 0.5891 0.7398
vn -0.2929 0.5794 0.7606
vn 0.5896 0.6743 -0.4446
vn 0.7550 -0.5216 -0.3973
vn -0.5138 0.8439 -0.1541
vn -0.0442 -0.9990 -0.0056
vn -0.3475 0.8590 -0.3760
vn -0.5765 0.7756 -0.2571
vn -0.7905 0.5596 -0.2488
vn -0.7378 0.5428 0.4013
vn -0.7516 0.5764 0.3207
vn -0.8773 0.0252 0.4793
vn 0.4232 -0.0618 0.9039
vn 0.0055 -1.0000 0.0023
vn -0.6586 -0.2170 0.7206
vn -0.0182 -0.9676 0.2517
vn 0.8241 0.5300 -0.1998
vn 0.6891 0.5232 0.5013
vn 0.8514 0.0349 0.5234
vn 0.7634 0.5894 0.2642
vn -0.8750 -0.3594 -0.3243
vn -0.5797 -0.4582 -0.6738
vn -0.3751 0.4814 -0.7922
vn -0.6040 0.3926 -0.6936
vn -0.7515 0.6221 -0.2198
vn -0.8320 0.3131 0.4580
vn 0.4550 -0.2383 -0.8580
vn 0.6079 0.7215 -0.3316
vn -0.2654 -0.9565 -0.1211
vn -0.3904 -0.8738 0.2898
vn 0.6161 0.5468 0.5670
vn 0.9144 0.3099 -0.2604
vn -0.0684 0.3512 -0.9338
vn 0.5761 0.5885 -0.5672
vn 0.3295 -0.8833 -0.3335
vn 0.1888 -0.9391 -0.2871
vn 0.2128 -0.9539 0.2116
vn 0.2661 -0.9639 0.0130
vn -0.7182 -0.5190 -0.4635
vn -0.5196 0.8531 -0.0473
vn -0.4272 0.5034 0.7510
vn 0.2714 0.4242 0.8639
vn 0.2092 -0.9510 0.2277
vn -0.1761 -0.9367 0.3026
vn 0.2993 0.5581 -0.7739
vn 0.5295 0.0375 -0.8475
vn 0.1652 0.9433 0.2880
vn 0.3998 -0.5340 0.7450
vn 0.0150 -0.9356 -0.3528
vn -0.4726 0.0359 -0.8806
vn 0.4808 -0.8599 0.1717
vn 0.7669 0.4555 0.4521
vn 0.1864 0.8343 -0.5188
vn -0.1187 0.8083 -0.5767
vn 0.2789 -0.4210 -0.8631
vn -0.2381 -0.3515 -0.9054
vn 0.6679 -0.4724 -0.5751
vn 0.3162 -0.3626 -0.8767
vn -0.4241 0.7772 0.4648
vn -0.8487 -0.2155 0.4830
vn -0.3517 -0.9122 -0.2102
vn -0.1512 -0.9707 -0.1866
vn -0.5064 -0.2436 0.8272
vn -0.6066 -0.4900 0.6260
vn 0.9258 -0.2834 -0.2501
vn 0.7655 -0.5160 0.3844
vn 0.2914 0.7836 0.5486
vn 0.4785 0.8513 0.2151
vn 0.1691 -0.9856 -0.0062
vn 0.8708 0.0323 -0.4905
vn -0.6503 0.7499 0.1217
vn -0.3964 0.8386 0.3737
vn 0.7746 -0.3414 0.5324
vn 0.3785 -0.3557 0.8545
vn -0.3146 0.4778 -0.8202
vn 0.0508 -0.5266 -0.8486
vn -0.8434 -0.2072 -0.4958
vn -0.2604 -0.3944 -0.8813
vn -0.1741 0.5777 0.7974
vn 0.0237 0.5766 0.8167
vn -0.8750 0.3865 0.2915
vn -0.3208 0.8541 0.4095
vn -0.9426 0.0464 0.3306
vn -0.2399 -0.9672 0.0834
vn 0.2501 0.7726 -0.5836
vn 0.3636 0.8769 -0.3144
vn 0.3591 0.9278 0.1007
vn 0.8353 -0.5486 -0.0362
vn 0.8257 -0.5641 -0.0031
vn 0.8211 0.5697 0.0362
vn -0.5845 0.5502 -0.5963
vn -0.6676 -0.3385 -0.6631
vn 0.5588 0.5469 0.6233
vn 0.8313 0.0289 0.5551
vn -0.6784 -0.6916 -0.2481
vn -0.9763 0.0432 0.2122
vn 0.1528 -0.3852 0.9101
vn -0.0880 0.7473 0.6587
vn -0.0648 0.5284 0.8465
vn 0.0035 -0.3308 0.9437
vn 0.6609 -0.3701 -0.6529
vn 0.6106 0.5260 -0.5921
vn 0.2324 0.8319 0.5040
vn 0.4117 -0.4796 0.7749
vn -0.1685 0.3343 0.9273
vn -0.1907 -0.9285 0.3187
vn 0.9973 0.0424 0.0601
vn 0.8717 -0.3789 -0.3107
vn 0.0157 0.9845 0.1747
vn 0.2198 0.9734 -0.0639
vn 0.8439 -0.5331 -0.0602
vn 0.5101 0.8595 -0.0322
vn -0.2933 0.7353 -0.6110
vn -0.8177 0.4669 -0.3367
vn 0.8143 -0.2021 0.5442
vn 0.5563 0.7319 0.3935
vn 0.6877 0.2656 0.6757
vn 0.3927 -0.3015 0.8688
vn 0.8748 0.4844 0.0063
vn 0.7846 0.4649 -0.4103
vn -0.9172 -0.1774 -0.3567
vn -0.8351 -0.5495 -0.0247
vn -0.4168 -0.4524 0.7884
vn -0.1196 0.2587 0.9585
vn 0.0129 -0.9986 0.0516
vn 0.5884 -0.4929 0.6410
vn 0.8263 0.5443 0.1449
vn 0.9142 -0.3602 0.1859
vn -0.5977 -0.5208 0.6096
vn -0.6384 0.5870 0.4979
vn -0.2899 0.1078 -0.9510
vn -0.4536 0.0395 -0.8903
vn 0.1237 0.1995 -0.9721
vn 0.3827 0.1204 -0.9160
vn -0.7165 -0.5486 -0.4309
vn -0.8791 0.4748 -0.0422
vn 0.9989 0.0360 0.0287
vn 0.8730 0.0786 -0.4814
vn 0.9862 0.1598 0.0435
vn 0.9384 0.0684 0.3387
vn -0.5996 0.7889 0.1346
vn -0.8742 -0.4454 0.1935
vn -0.1826 -0.4401 -0.8792
vn -0.1261 0.8233 -0.5534
vn 0.1625 -0.5870 0.7931
vn 0.2627 0.4138 0.8716
vn 0.4692 0.4177 -0.7780
vn 0.0213 0.0990 -0.9949
vn -0.8481 0.5293 0.0220
vn -0.9383 -0.3356 0.0833
vn 0.7129 -0.2134 -0.6681
vn 0.4179 0.4424 -0.7935
vn -0.1367 0.1902 -0.9722
vn 0.3512 0.2598 -0.8995
vn 0.9341 -0.2375 0.2667
vn 0.8082 0.5422 -0.2297
vn 0.9782 -0.1566 0.1366
vn 0.8405 -0.3304 0.4294
vn -0.9988 0.0266 -0.0416
vn -0.9558 0.0963 -0.2779
vn -0.9818 0.1722 -0.0795
vn -0.9054 0.0979 0.4130
vn -0.8897 0.1160 0.4416
vn -0.3815 0.0937 0.9196
vn -0.3955 0.1031 0.9126
vn 0.4216 0.0916 0.9022
vn -0.8424 0.1678 -0.5120
vn -0.4582 0.1611 -0.8741
vn 0.5091 0.2020 -0.8367
vn 0.9055 0.1491 -0.3974
vn -0.8549 0.4327 0.2862
vn -0.7588 -0.5708 0.3138
vn -0.1230 0.9808 -0.1514
vn 0.0534 0.9982 0.0256
vn 0.8837 0.0368 -0.4667
vn 0.2355 -0.9659 -0.1074
vn 0.2924 0.5587 -0.7761
vn 0.0638 0.9525 -0.2976
vn 0.4491 0.1088 0.8868
vn 0.8321 0.1578 0.5317
vn 0.0093 -0.9326 -0.3609
vn -0.0134 0.0423 -0.9990
vn -0.3590 0.8174 -0.4506
vn -0.6547 0.0768 -0.7520
vn -0.6719 0.1029 -0.7335
vn -0.5697 0.5569 -0.6044
vn -0.0251 -0.9843 0.1750
vn 0.0151 0.0378 0.9992
vn -0.0233 0.1797 0.9834
vn 0.0047 0.0364 0.9993
vn 0.2051 0.4804 -0.8527
vn 0.1750 -0.5619 -0.8085
vn -0.8989 -0.4375 -0.0228
vn -0.9407 -0.2417 0.2380
vn 0.2304 -0.1890 0.9546
vn -0.0138 -0.5387 0.8424
usemtl None
s off
f 1//1 2//1 3//1
f 4//2 5//2 6//2
f 1//3 7//3 2//3
f 8//4 9//4 10//4
f 11//5 12//5 13//5
f 14//6 15//6 16//6
f 17//7 18//7 19//7
f 9//8 20//8 10//8
f 21//9 22//9 23//9
f 13//10 24//10 25//10
f 25//11 24//11 26//11
f 27//12 28//12 29//12
f 30//13 31//13 32//13
f 33//14 34//14 35//14
f 36//15 37//15 38//15
f 39//16 40//16 41//16
f 42//17 43//17 44//17
f 45//18 46//18 47//18
f 48//19 49//19 50//19
f 51//20 36//20 38//20
f 41//21 52//21 53//21
f 53//22 54//22 41//22
f 55//23 56//23 57//23
f 58//24 59//24 60//24
f 61//25 62//25 63//25
f 64//26 65//26 59//26
f 66//27 67//27 68//27
f 17//28 69//28 70//28
f 71//29 31//29 72//29
f 73//30 58//30 60//30
f 74//31 75//31 70//31
f 76//32 75//32 74//32
f 22//33 21//33 77//33
f 78//34 50//34 49//34
f 79//35 80//35 81//35
f 35//36 82//36 79//36
f 83//37 79//37 81//37
f 4//38 84//38 5//38
f 16//39 15//39 85//39
f 47//40 46//40 66//40
f 56//41 55//41 86//41
f 59//42 86//42 64//42
f 19//43 18//43 49//43
f 78//44 49//44 87//44
f 63//45 88//45 61//45
f 24//46 13//46 12//46
f 63//47 89//47 90//47
f 88//48 63//48 90//48
f 62//49 29//49 28//49
f 91//50 65//50 64//50
f 91//51 64//51 29//51
f 16//52 85//52 92//52
f 73//53 93//53 94//53
f 13//54 25//54 72//54
f 13//55 95//55 11//55
f 96//56 13//56 93//56
f 33//57 97//57 34//57
f 55//58 57//58 98//58
f 99//59 1//59 3//59
f 33//60 55//60 98//60
f 62//61 28//61 63//61
f 89//62 63//62 80//62
f 54//63 100//63 41//63
f 100//64 101//64 41//64
f 39//65 41//65 101//65
f 102//66 103//66 66//66
f 25//67 26//67 104//67
f 105//68 32//68 104//68
f 20//69 102//69 10//69
f 103//70 102//70 85//70
f 38//71 37//71 106//71
f 107//72 78//72 108//72
f 109//73 100//73 54//73
f 78//74 107//74 50//74
f 6//75 109//75 110//75
f 5//76 109//76 6//76
f 7//77 77//77 106//77
f 77//78 21//78 110//78
f 52//79 41//79 40//79
f 70//80 111//80 74//80
f 47//81 66//81 103//81
f 112//82 106//82 47//82
f 112//83 7//83 106//83
f 112//84 85//84 15//84
f 79//85 83//85 35//85
f 4//86 6//86 23//86
f 43//87 42//87 76//87
f 36//88 113//88 37//88
f 114//89 100//89 109//89
f 84//90 10//90 114//90
f 106//91 77//91 110//91
f 108//92 38//92 106//92
f 115//93 116//93 117//93
f 115//94 117//94 118//94
f 115//95 79//95 116//95
f 89//96 80//96 79//96
f 105//97 116//97 34//97
f 116//98 79//98 82//98
f 60//99 11//99 95//99
f 119//100 65//100 91//100
f 10//101 102//101 100//101
f 10//102 100//102 114//102
f 59//103 65//103 60//103
f 119//104 60//104 65//104
f 97//105 105//105 34//105
f 30//106 98//106 120//106
f 94//107 120//107 73//107
f 30//108 120//108 31//108
f 72//109 25//109 71//109
f 32//110 25//110 104//110
f 11//111 61//111 88//111
f 60//112 119//112 11//112
f 120//113 98//113 57//113
f 57//114 56//114 58//114
f 53//115 52//115 69//115
f 54//116 53//116 48//116
f 88//117 90//117 24//117
f 26//118 24//118 118//118
f 45//119 76//119 46//119
f 45//120 43//120 76//120
f 111//121 67//121 74//121
f 46//122 76//122 74//122
f 92//123 85//123 20//123
f 85//124 102//124 20//124
f 104//125 117//125 116//125
f 105//126 104//126 116//126
f 18//127 42//127 44//127
f 87//128 51//128 78//128
f 38//129 78//129 51//129
f 38//130 108//130 78//130
f 28//131 27//131 80//131
f 80//132 63//132 28//132
f 7//133 1//133 77//133
f 77//134 1//134 99//134
f 12//135 88//135 24//135
f 12//136 11//136 88//136
f 93//137 73//137 96//137
f 73//138 60//138 95//138
f 86//139 59//139 56//139
f 56//140 59//140 58//140
f 82//141 34//141 116//141
f 35//142 34//142 82//142
f 120//143 58//143 73//143
f 120//144 57//144 58//144
f 47//145 103//145 112//145
f 112//146 103//146 85//146
f 71//147 32//147 31//147
f 25//148 32//148 71//148
f 76//149 42//149 75//149
f 17//150 42//150 18//150
f 30//151 105//151 97//151
f 105//152 30//152 32//152
f 70//153 69//153 52//153
f 111//154 70//154 52//154
f 31//155 94//155 72//155
f 120//156 94//156 31//156
f 44//157 43//157 36//157
f 113//158 36//158 43//158
f 18//159 44//159 87//159
f 18//160 87//160 49//160
f 111//161 52//161 40//161
f 39//162 68//162 40//162
f 96//163 95//163 13//163
f 73//164 95//164 96//164
f 93//165 13//165 72//165
f 72//166 94//166 93//166
f 97//167 33//167 98//167
f 97//168 98//168 30//168
f 66//169 46//169 67//169
f 74//170 67//170 46//170
f 83//171 81//171 84//171
f 84//172 8//172 10//172
f 84//173 4//173 83//173
f 83//174 4//174 35//174
f 102//175 101//175 100//175
f 39//176 101//176 102//176
f 77//177 99//177 22//177
f 23//178 22//178 33//178
f 33//179 22//179 99//179
f 55//180 33//180 99//180
f 119//181 61//181 11//181
f 61//182 119//182 91//182
f 115//183 89//183 79//183
f 89//184 115//184 118//184
f 37//185 113//185 47//185
f 37//186 47//186 106//186
f 19//187 49//187 48//187
f 53//188 69//188 48//188
f 91//189 29//189 62//189
f 62//190 61//190 91//190
f 110//191 109//191 107//191
f 50//192 107//192 109//192
f 26//193 118//193 117//193
f 104//194 26//194 117//194
f 110//195 108//195 106//195
f 107//196 108//196 110//196
f 51//197 87//197 44//197
f 44//198 36//198 51//198
f 92//199 20//199 9//199
f 27//200 29//200 9//200
f 29//201 92//201 9//201
f 29//202 64//202 92//202
f 92//203 64//203 16//203
f 64//204 14//204 16//204
f 86//205 14//205 64//205
f 86//206 55//206 2//206
f 27//207 9//207 8//207
f 81//208 8//208 84//208
f 35//209 4//209 23//209
f 33//210 35//210 23//210
f 39//211 102//211 66//211
f 68//212 39//212 66//212
f 75//213 17//213 70//213
f 75//214 42//214 17//214
f 23//215 6//215 21//215
f 21//216 6//216 110//216
f 69//217 19//217 48//217
f 17//218 19//218 69//218
f 55//219 3//219 2//219
f 99//220 3//220 55//220
f 114//221 109//221 5//221
f 84//222 114//222 5//222
f 89//223 118//223 90//223
f 118//224 24//224 90//224
f 81//225 27//225 8//225
f 80//226 27//226 81//226
f 112//227 15//227 7//227
f 2//228 7//228 15//228
f 86//229 2//229 14//229
f 14//230 2//230 15//230
f 50//231 109//231 54//231
f 54//232 48//232 50//232
f 40//233 68//233 111//233
f 67//234 111//234 68//234
f 43//235 45//235 113//235
f 47//236 113//236 45//236
