# Blender v2.78 (sub 0) OBJ File: ''
# www.blender.org
mtllib knight.mtl
o PM3D_CHESS_SET_3.001
v 0.263643 0.440008 0.478937
v 0.139049 0.733282 0.585826
v -0.116283 0.443128 0.571798
v -0.464020 0.444078 -0.349004
v -0.612858 0.446807 0.063838
v -0.613884 0.739726 -0.260139
v -0.428190 0.446341 0.422306
v -0.229698 1.189662 0.476032
v -0.480609 0.933949 0.342280
v 0.004832 1.256946 -0.551735
v 0.093672 1.764126 -0.317278
v 0.456375 1.760758 -0.319978
v 0.167874 -0.092564 0.622535
v -0.613648 -0.096353 -0.269171
v 0.643036 -0.083485 -0.160141
v 0.642924 2.018210 -0.119477
v 0.468140 1.119987 -0.144595
v 0.341161 1.112911 -0.434613
v -0.578475 -0.091993 0.370877
v -0.665324 0.830884 0.124335
v 0.162109 0.680601 -0.608840
v 0.195662 -0.082376 -0.589789
v 0.119023 1.785331 0.296090
v -0.591121 2.188642 0.233820
v -0.344835 1.906040 0.187226
v 0.465410 1.133740 0.131352
v 0.671395 2.164748 0.092237
v 0.355268 1.113034 0.379998
v 0.455313 0.001791 -0.543977
v 0.137105 0.001837 -0.721287
v 0.254933 0.129696 -0.545361
v 0.250466 0.442586 -0.445581
v 0.475895 0.444959 -0.103693
v 0.531435 0.309712 -0.397896
v 0.597649 0.312459 0.342167
v 0.493456 0.131842 0.368234
v 0.673082 0.315071 -0.034945
v 0.216611 0.308063 0.719041
v -0.532752 1.938397 -0.264943
v -0.616155 2.234856 -0.248103
v -0.024618 2.291194 -0.268564
v 0.321843 2.323817 0.291408
v -0.120653 2.399660 -0.037572
v -0.384273 1.241566 -0.421112
v -0.494064 1.331739 0.165256
v -0.154108 1.767898 0.151206
v -0.549734 2.337019 -0.026487
v -0.560439 1.842907 -0.047807
v -0.639669 1.974732 0.224932
v -0.705830 2.087546 -0.175913
v 0.612771 2.354249 -0.100749
v 0.328411 2.515659 -0.289873
v 0.263113 2.540035 -0.131274
v 0.552380 2.202644 0.257750
v 0.450716 1.762403 0.305603
v 0.543064 0.640728 -0.198570
v 0.552706 0.672162 0.147229
v 0.414103 0.628923 0.415190
v -0.162470 0.780354 -0.593725
v -0.163095 0.431715 -0.517528
v -0.495325 0.133109 -0.441406
v -0.618765 0.313725 -0.457100
v -0.200870 0.321186 -0.685928
v -0.680255 0.136231 -0.103582
v -0.633777 -0.017327 -0.485793
v -0.611967 0.134790 0.360146
v -0.832689 -0.016828 -0.050353
v -0.711479 -0.019249 0.430271
v -0.262463 0.132022 0.628757
v -0.405202 -0.030406 0.715017
v 0.187194 0.004227 0.782185
v 0.035537 1.249075 0.500705
v -0.145179 1.754803 -0.156175
v -0.468418 1.387875 -0.167498
v -0.296341 0.299396 0.716773
v 0.539963 2.221023 -0.278594
v -0.360039 1.886979 -0.140971
v 0.673948 -0.012626 0.309170
v 0.115285 0.135327 0.640544
v 0.654833 0.027927 -0.225030
v 0.575079 0.141377 -0.110947
v -0.785322 0.299729 -0.011124
v -0.645771 0.331181 0.463087
v 0.349949 0.649098 -0.491142
v 0.471075 2.475790 0.122855
v 0.613266 2.577919 -0.001071
v -0.018996 2.370195 0.178411
v -0.185424 0.131894 -0.597526
v -0.280455 -0.027916 -0.718354
v 0.184490 0.311740 -0.668340
v -0.642734 1.041518 -0.112864
v -0.676363 2.261554 0.134662
v 0.459534 0.441295 0.191489
v 0.789480 2.138457 -0.011552
v 0.580701 1.145203 -0.004310
v 0.123797 2.677721 0.001705
v -0.281253 1.986476 -0.267274
v 0.139022 2.513198 0.043820
v 0.324353 2.558358 0.249634
v 0.663253 0.719305 -0.029783
vn 0.2282 -0.2464 0.9419
vn -0.8813 -0.3519 -0.3154
vn -0.5320 0.0811 0.8429
vn -0.0029 0.4200 -0.9075
vn 0.0107 -0.9999 -0.0051
vn 0.9049 -0.1651 -0.3922
vn -0.0031 -1.0000 0.0070
vn -0.8729 -0.1900 0.4494
vn 0.2906 0.1725 -0.9412
vn 0.0115 -0.9998 -0.0146
vn -0.3082 -0.4101 0.8584
vn 0.9066 -0.1664 0.3877
vn 0.3889 0.6017 -0.6977
vn 0.4490 0.8410 -0.3019
vn 0.8641 -0.4740 0.1696
vn 0.6744 -0.2911 0.6785
vn -0.0389 0.0458 -0.9982
vn -0.0680 0.0343 0.9971
vn 0.7401 -0.0126 -0.6724
vn -0.1000 0.8840 -0.4567
vn -0.3010 0.4431 -0.8444
vn -0.5615 0.4598 0.6879
vn -0.1433 0.9144 -0.3786
vn -0.8591 -0.5118 -0.0022
vn 0.4647 0.8837 0.0555
vn 0.7932 -0.1182 0.5974
vn -0.4340 0.4837 0.7600
vn 0.7191 -0.0261 0.6944
vn 0.7323 -0.4836 -0.4795
vn 0.8700 0.1401 0.4726
vn -0.5900 -0.0570 -0.8054
vn -0.1104 -0.2120 -0.9710
vn -0.4407 -0.3721 -0.8169
vn -0.7401 -0.5406 -0.4001
vn -0.6340 0.6878 -0.3534
vn -0.7792 0.5942 0.1995
vn -0.4374 0.6904 0.5762
vn -0.1258 0.5493 0.8261
vn -0.1679 0.1003 0.9807
vn 0.2042 0.1991 0.9585
vn -0.7487 0.6611 -0.0499
vn -0.7084 -0.6084 -0.3579
vn -0.9875 -0.1185 -0.1040
vn -0.7873 0.6150 0.0431
vn -0.5386 -0.4750 0.6959
vn 0.1285 0.8583 0.4968
vn 0.1408 0.0633 -0.9880
vn -0.0071 0.0386 -0.9992
vn -0.1611 -0.9061 0.3912
vn 0.2347 -0.9710 0.0455
vn 0.2328 -0.9638 0.1302
vn 0.3795 0.7670 0.5173
vn 0.8243 0.5659 0.0135
vn 0.4978 0.7758 -0.3878
vn 0.8985 0.1853 -0.3979
vn 0.8931 0.1830 0.4109
vn -0.5863 0.7865 -0.1943
vn -0.6788 0.7184 0.1521
vn -0.0152 0.7195 0.6944
vn -0.4239 0.8787 0.2195
vn 0.1599 -0.5173 -0.8407
vn 0.7335 -0.4631 -0.4974
vn -0.5447 0.8140 -0.2018
vn -0.3022 0.7950 -0.5260
vn 0.4728 -0.5791 0.6641
vn 0.0039 -0.4648 0.8854
vn 0.5234 0.2571 0.8124
vn -0.1367 0.9709 0.1968
vn 0.0773 0.7812 -0.6195
vn -0.4292 0.5954 -0.6792
vn 0.0755 0.8258 -0.5589
vn 0.4317 0.7161 -0.5485
vn 0.0971 -0.5311 -0.8417
vn 0.5885 -0.2837 -0.7571
vn -0.9916 -0.0340 -0.1246
vn -0.5951 0.0145 -0.8035
vn -0.1641 0.7221 0.6720
vn -0.9868 -0.0823 0.1397
vn -0.9074 -0.3068 0.2874
vn -0.6866 0.7197 0.1033
vn 0.8716 -0.2738 0.4067
vn 0.4792 0.7262 0.4929
vn 0.6435 -0.6135 -0.4578
vn 0.8374 -0.5303 0.1321
vn 0.4469 0.8397 0.3083
vn 0.6001 0.7901 0.1255
vn 0.6080 0.5113 0.6074
vn 0.6446 0.7543 0.1248
vn 0.6912 0.2929 -0.6607
vn 0.6608 -0.1443 -0.7366
vn 0.1422 0.6776 0.7216
vn 0.2836 0.3898 -0.8761
vn -0.8673 -0.3677 -0.3355
vn -0.8042 -0.5828 0.1166
vn -0.0937 0.0655 -0.9934
vn -0.5188 -0.8517 0.0735
vn -0.5843 -0.8113 0.0176
vn -0.3293 -0.6365 0.6974
vn -0.8099 0.1929 -0.5539
vn -0.6257 0.5677 -0.5351
vn -0.0274 0.0190 0.9994
vn -0.0021 0.3568 0.9342
vn -0.4312 0.0500 0.9008
vn -0.2816 0.7459 0.6036
vn 0.6912 0.0049 -0.7226
vn 0.8328 0.0825 -0.5474
vn 0.7702 0.4517 0.4504
vn -0.1460 0.6794 0.7191
vn -0.3199 -0.9472 0.0240
vn -0.7236 0.6055 -0.3313
vn 0.5573 0.1274 0.8205
vn 0.7111 -0.0240 0.7027
vn -0.4631 0.8225 0.3302
vn -0.3909 0.8719 -0.2950
vn -0.1226 0.0991 -0.9875
vn -0.4781 0.7017 -0.5283
vn -0.0175 0.0938 -0.9954
vn -0.3191 0.1937 -0.9277
vn -0.6613 0.2862 0.6934
vn -0.9349 0.3048 0.1817
vn -0.4378 -0.5847 -0.6830
vn -0.4753 0.5682 -0.6718
vn -0.2749 0.8314 0.4828
vn -0.5486 -0.4603 0.6980
vn -0.4859 -0.1858 -0.8540
vn -0.2422 0.8352 -0.4938
vn 0.0311 -0.4209 -0.9066
vn 0.0445 0.8556 -0.5157
vn 0.5226 0.7586 -0.3891
vn 0.3446 -0.8665 -0.3610
vn 0.7489 -0.4249 0.5085
vn 0.4956 -0.1037 0.8623
vn -0.0278 0.7265 0.6866
vn -0.0251 -0.4014 0.9156
vn -0.2890 0.1709 0.9419
vn -0.5053 0.8177 0.2756
vn -0.7024 0.1303 0.6997
vn 0.1113 -0.0665 0.9916
vn 0.3992 -0.8046 0.4395
vn -0.0089 -0.8546 0.5192
vn -0.3253 0.6857 -0.6511
vn -0.4110 -0.4131 -0.8127
vn 0.8755 -0.3467 -0.3366
vn 0.5912 0.7694 -0.2421
vn 0.1907 0.9088 -0.3711
vn 0.7136 0.4693 0.5202
vn 0.1518 0.7618 -0.6298
vn -0.3665 0.9229 -0.1183
vn -0.2015 0.2254 0.9532
vn -0.7791 -0.2222 -0.5862
vn -0.0718 -0.9749 0.2106
vn -0.5275 0.6100 0.5913
vn -0.0598 -0.9793 -0.1935
vn -0.0497 0.6210 -0.7822
vn -0.7679 0.0225 0.6402
vn -0.7932 0.2250 0.5659
vn -0.1686 0.3742 0.9119
vn -0.1223 0.1377 0.9829
vn 0.6699 0.2520 0.6984
vn 0.6384 -0.1287 0.7589
vn -0.8176 0.3379 -0.4662
vn -0.8928 0.4505 0.0072
vn 0.7563 0.1888 -0.6264
vn 0.9278 -0.3729 0.0080
vn 0.9518 -0.3028 0.0490
vn 0.5398 0.8408 0.0404
vn -0.2342 -0.9201 -0.3139
vn -0.5373 -0.8072 -0.2445
vn -0.8765 0.4506 -0.1693
vn -0.5209 -0.0984 -0.8479
vn 0.2285 0.1683 0.9589
vn 0.1779 0.0657 0.9819
vn 0.5410 0.1118 -0.8335
vn 0.4408 -0.3907 -0.8081
vn -0.4056 -0.5779 -0.7082
vn -0.0101 0.0043 -0.9999
vn 0.0151 -0.9160 -0.4009
vn 0.1517 -0.8202 -0.5515
vn -0.4401 -0.8916 0.1065
vn -0.3366 -0.8829 0.3275
vn 0.7845 -0.1357 -0.6051
vn 0.7504 0.1834 -0.6351
vn 0.7610 -0.1279 0.6360
vn 0.7449 0.1631 0.6469
vn 0.4792 -0.8752 0.0662
vn 0.8257 0.1272 0.5496
vn 0.6574 0.4488 -0.6053
vn 0.7824 -0.0866 -0.6167
vn 0.5386 0.0950 -0.8372
vn 0.8905 0.1046 -0.4429
vn 0.8037 -0.3607 -0.4732
vn 0.9903 -0.1313 -0.0454
vn -0.6426 0.7507 -0.1534
vn -0.1750 0.9373 0.3014
vn 0.3397 -0.7160 -0.6098
vn 0.0552 -0.8295 -0.5558
usemtl None
s off
f 1//1 2//1 3//1
f 4//2 5//2 6//2
f 7//3 8//3 9//3
f 10//4 11//4 12//4
f 13//5 14//5 15//5
f 16//6 17//6 18//6
f 19//7 14//7 13//7
f 5//8 7//8 20//8
f 21//9 10//9 12//9
f 15//10 14//10 22//10
f 23//11 24//11 25//11
f 26//12 27//12 28//12
f 29//13 30//13 31//13
f 32//14 33//14 34//14
f 35//15 36//15 37//15
f 36//16 35//16 38//16
f 39//17 40//17 41//17
f 23//18 42//18 24//18
f 18//19 12//19 16//19
f 43//20 41//20 40//20
f 11//21 10//21 44//21
f 45//22 8//22 46//22
f 47//23 43//23 40//23
f 48//24 49//24 50//24
f 51//25 52//25 53//25
f 27//26 54//26 55//26
f 8//27 23//27 46//27
f 28//28 27//28 55//28
f 32//29 56//29 33//29
f 57//30 28//30 58//30
f 59//31 4//31 6//31
f 60//32 59//32 21//32
f 61//33 62//33 63//33
f 62//34 61//34 64//34
f 64//35 61//35 65//35
f 66//36 67//36 68//36
f 69//37 66//37 70//37
f 71//38 69//38 70//38
f 3//39 2//39 8//39
f 2//40 55//40 72//40
f 73//41 74//41 46//41
f 48//42 50//42 39//42
f 5//43 20//43 6//43
f 74//44 45//44 46//44
f 69//45 75//45 66//45
f 1//46 3//46 38//46
f 12//47 52//47 76//47
f 12//48 11//48 52//48
f 48//49 25//49 49//49
f 25//50 48//50 77//50
f 78//51 13//51 15//51
f 36//52 79//52 71//52
f 78//53 80//53 81//53
f 81//54 29//54 31//54
f 18//55 17//55 56//55
f 57//56 26//56 28//56
f 5//57 62//57 82//57
f 5//58 82//58 83//58
f 38//59 3//59 75//59
f 5//60 83//60 7//60
f 32//61 60//61 21//61
f 56//62 32//62 84//62
f 4//63 62//63 5//63
f 4//64 63//64 62//64
f 38//65 79//65 36//65
f 38//66 75//66 69//66
f 85//67 27//67 86//67
f 87//68 43//68 47//68
f 31//69 30//69 88//69
f 61//70 89//70 65//70
f 32//71 63//71 60//71
f 32//72 34//72 90//72
f 31//73 88//73 90//73
f 34//74 31//74 90//74
f 20//75 91//75 6//75
f 59//76 6//76 44//76
f 92//77 24//77 87//77
f 49//78 92//78 50//78
f 83//79 82//79 66//79
f 64//80 67//80 66//80
f 93//81 57//81 58//81
f 38//82 35//82 1//82
f 34//83 81//83 31//83
f 37//84 36//84 81//84
f 93//85 1//85 35//85
f 93//86 35//86 37//86
f 36//87 71//87 78//87
f 81//88 36//88 78//88
f 51//89 86//89 94//89
f 95//90 16//90 94//90
f 85//91 86//91 96//91
f 86//92 51//92 53//92
f 82//93 62//93 64//93
f 82//94 64//94 66//94
f 11//95 97//95 52//95
f 25//96 77//96 73//96
f 46//97 25//97 73//97
f 23//98 25//98 46//98
f 6//99 91//99 44//99
f 74//100 73//100 44//100
f 23//101 55//101 42//101
f 72//102 55//102 23//102
f 3//103 8//103 7//103
f 83//104 3//104 7//104
f 21//105 12//105 18//105
f 18//106 56//106 84//106
f 27//107 85//107 54//107
f 24//108 42//108 87//108
f 19//109 67//109 14//109
f 64//110 65//110 67//110
f 28//111 2//111 58//111
f 28//112 55//112 2//112
f 87//113 98//113 43//113
f 43//114 53//114 52//114
f 97//115 41//115 52//115
f 43//116 52//116 41//116
f 21//117 59//117 10//117
f 59//118 44//118 10//118
f 9//119 8//119 45//119
f 20//120 45//120 91//120
f 11//121 73//121 97//121
f 11//122 44//122 73//122
f 83//123 75//123 3//123
f 66//124 75//124 83//124
f 4//125 59//125 60//125
f 60//126 63//126 4//126
f 88//127 63//127 90//127
f 32//128 90//128 63//128
f 81//129 80//129 29//129
f 15//130 22//130 29//130
f 93//131 58//131 1//131
f 2//132 1//132 58//132
f 71//133 79//133 69//133
f 79//134 38//134 69//134
f 42//135 99//135 87//135
f 98//136 87//136 99//136
f 49//137 24//137 92//137
f 49//138 25//138 24//138
f 13//139 78//139 71//139
f 13//140 71//140 70//140
f 88//141 89//141 61//141
f 63//142 88//142 61//142
f 37//143 81//143 34//143
f 37//144 34//144 33//144
f 99//145 85//145 98//145
f 99//146 54//146 85//146
f 53//147 96//147 86//147
f 98//148 53//148 43//148
f 96//149 98//149 85//149
f 53//150 98//150 96//150
f 70//151 19//151 13//151
f 66//152 68//152 70//152
f 14//153 89//153 22//153
f 88//154 30//154 89//154
f 9//155 20//155 7//155
f 20//156 9//156 45//156
f 72//157 23//157 8//157
f 2//158 72//158 8//158
f 27//159 94//159 86//159
f 95//160 94//160 27//160
f 91//161 74//161 44//161
f 45//162 74//162 91//162
f 56//163 17//163 100//163
f 93//164 56//164 57//164
f 33//165 56//165 93//165
f 93//166 37//166 33//166
f 65//167 89//167 14//167
f 14//168 67//168 65//168
f 50//169 92//169 40//169
f 40//170 39//170 50//170
f 42//171 54//171 99//171
f 54//172 42//172 55//172
f 18//173 84//173 21//173
f 84//174 32//174 21//174
f 73//175 77//175 97//175
f 39//176 41//176 97//176
f 48//177 39//177 77//177
f 39//178 97//178 77//178
f 67//179 19//179 68//179
f 68//180 19//180 70//180
f 17//181 16//181 95//181
f 95//182 100//182 17//182
f 27//183 26//183 95//183
f 95//184 26//184 57//184
f 100//185 57//185 56//185
f 100//186 95//186 57//186
f 76//187 52//187 51//187
f 12//188 76//188 16//188
f 51//189 94//189 16//189
f 16//190 76//190 51//190
f 80//191 15//191 29//191
f 15//192 80//192 78//192
f 47//193 40//193 92//193
f 87//194 47//194 92//194
f 22//195 30//195 29//195
f 89//196 30//196 22//196
