# Blender v2.78 (sub 0) OBJ File: ''
# www.blender.org
mtllib rook.mtl
o PM3D_CHESS_SET_3.003
v -0.390284 0.764775 0.161494
v -0.274122 0.808475 0.299803
v -0.353530 1.796902 0.227919
v 0.044897 1.149446 -0.394312
v -0.130114 1.801187 -0.408225
v 0.156807 1.797496 -0.388562
v -0.379715 0.791180 -0.157171
v -0.387106 1.806330 -0.188102
v -0.207514 1.415003 -0.343539
v -0.557047 -0.135740 0.390864
v -0.064689 -0.134964 -0.673018
v 0.643172 -0.137372 0.184886
v 0.113167 0.771564 0.409263
v 0.295239 1.634089 0.282746
v 0.032470 1.498691 0.400270
v 0.239158 0.823402 -0.317687
v -0.428961 1.806739 0.048071
v -0.398648 0.819299 -0.011067
v 0.021133 2.258526 0.280255
v -0.099664 2.266985 0.530728
v 0.097969 2.262544 0.473016
v 0.443843 2.264771 0.377654
v 0.179225 2.265439 0.208513
v 0.255650 2.264049 0.427161
v 0.354707 2.259042 0.270678
v -0.212738 2.264422 0.356866
v -0.153486 2.260589 0.212469
v -0.254624 2.260278 0.236014
v -0.286386 2.259651 0.079998
v -0.226645 2.262317 0.043314
v -0.298579 2.262429 0.002952
v -0.163506 2.263648 -0.120568
v -0.418743 2.265699 -0.434211
v -0.366331 2.256718 -0.194218
v -0.197832 2.259773 -0.248623
v 0.330630 0.752682 0.265387
v 0.406603 0.808112 0.016232
v 0.350671 -0.124744 -0.555408
v 0.527557 0.314546 0.376376
v -0.113017 0.800018 0.390530
v -0.236787 0.299495 0.603378
v 0.157012 0.308258 0.639514
v -0.644448 0.295749 -0.089926
v -0.605837 0.305552 0.227974
v -0.459877 0.293900 0.457143
v -0.508458 0.296003 -0.400175
v -0.215194 0.749885 -0.375998
v 0.048704 0.729312 -0.433334
v 0.073917 0.293998 -0.639791
v -0.244882 0.306615 -0.603592
v 0.643204 0.284174 0.059275
v 0.361418 0.298301 -0.536573
v 0.445686 2.267933 0.326412
v 0.243485 2.263980 0.041615
v 0.476880 2.267402 0.135705
v 0.511068 2.266826 -0.062096
v 0.165019 2.257925 -0.133604
v 0.432362 2.265960 -0.230406
v 0.227464 2.258903 -0.284700
v -0.059083 2.265787 -0.341519
v 0.007445 2.263409 -0.192709
v 0.066857 2.263170 -0.316127
v -0.270966 2.267059 -0.399820
v 0.424281 1.801108 0.042069
v 0.220975 0.024518 -0.680381
v 0.593897 0.297364 -0.259338
v -0.719143 0.002354 0.056892
v -0.587096 0.124192 0.041414
v -0.619241 0.018004 -0.375735
v -0.146212 1.801843 0.398862
v -0.392485 2.266274 0.306742
v -0.271993 2.261862 0.464349
v -0.585486 2.257818 0.095316
v -0.525019 2.263886 -0.081617
v -0.515580 2.251382 0.176383
v -0.477408 2.261617 -0.250476
v 0.349739 1.806668 -0.243245
v 0.211258 1.879736 -0.559976
v 0.512439 1.867454 -0.306684
v -0.416153 0.131176 0.441348
v 0.013139 2.247263 -0.591142
v 0.103864 2.265546 -0.426736
v 0.154032 2.252227 -0.527008
v -0.141913 2.253228 -0.527909
v -0.084896 2.267100 -0.427988
v 0.317095 2.257316 -0.465796
v 0.299265 2.263970 -0.431448
v 0.379196 2.258323 -0.440504
v -0.280687 2.265157 -0.431884
v -0.296922 2.258907 -0.476685
v -0.292927 2.118372 -0.486702
v -0.143879 2.117278 -0.548620
v -0.125210 1.864142 -0.580484
v -0.305202 2.126543 -0.485851
v -0.504241 2.121160 -0.260391
v -0.557007 2.118493 -0.095876
v -0.586652 1.895154 -0.156108
v 0.576394 0.122600 0.147447
v 0.329883 0.125797 0.485365
v -0.247469 -0.004548 0.690692
v 0.213199 -0.123675 0.672809
v 0.623654 0.018043 0.366958
v 0.514706 0.125931 -0.291922
v 0.545702 0.001518 -0.458734
v 0.639184 -0.104091 -0.241915
v 0.694455 0.029801 -0.114090
v 0.352761 0.812415 -0.189883
v -0.118068 1.864106 0.594606
v 0.045942 1.809860 0.433217
v 0.262300 1.862879 0.532275
v -0.536076 1.918833 0.326901
v 0.232380 0.026044 0.668726
v 0.029810 0.125497 0.586841
v -0.392141 1.859623 -0.439472
v 0.475471 2.119197 0.327155
v 0.465875 2.257662 0.318631
v 0.481416 1.864696 0.346149
v 0.539705 2.126402 0.186756
v 0.545184 2.252356 0.168881
v 0.545346 2.140897 0.181448
v 0.587342 2.233270 0.102194
v 0.124729 2.118847 0.561083
v 0.236063 2.114243 0.546841
v 0.134591 2.130273 0.545207
v 0.553240 2.115396 0.174776
v 0.589202 1.867623 0.068584
v 0.317365 2.110673 -0.490647
v 0.310087 2.117215 -0.478389
v 0.318222 2.136789 -0.484639
v 0.305889 1.811076 0.325459
v -0.535670 0.120010 -0.238011
v -0.298872 0.123595 -0.511940
v -0.623734 -0.128964 -0.202254
v -0.416864 -0.087312 -0.561007
v -0.235661 0.035705 -0.656950
v -0.106757 2.122942 0.576500
v 0.119654 2.256887 0.552901
v -0.115619 2.260878 0.557917
v -0.155594 2.115874 0.584182
v -0.271940 2.117019 0.500640
v -0.281217 2.154402 0.505388
v -0.581409 0.041862 0.394269
v -0.443723 2.123629 0.331019
v -0.565816 2.115701 0.195694
v -0.563458 2.133382 0.188579
v -0.559890 2.122164 0.181412
v 0.549879 2.243109 -0.099298
v 0.560956 2.123794 -0.088365
v 0.562998 2.122177 -0.110381
v 0.151966 2.122817 -0.550063
v 0.146593 0.122546 -0.579664
v 0.533706 2.122171 -0.250221
v -0.305694 2.114472 -0.492962
v 0.281667 2.255787 0.490901
v 0.297115 2.123482 0.493595
v 0.519706 2.117297 -0.274237
v 0.508118 2.260687 -0.255760
v 0.252289 2.128290 0.041587
v 0.181576 2.128308 -0.129835
v 0.006605 2.126998 -0.197902
v -0.170726 2.127182 -0.125717
v -0.235146 2.126348 0.049739
v -0.167491 2.128075 0.214014
v 0.009264 2.127544 0.285156
v 0.178678 2.126933 0.211514
vn -0.7634 -0.0144 0.6457
vn 0.0683 -0.0029 -0.9977
vn -0.6873 -0.0271 -0.7258
vn -0.0016 -1.0000 -0.0015
vn 0.3843 0.0541 0.9216
vn 0.3022 -0.0437 -0.9522
vn -0.9845 -0.0198 -0.1744
vn 0.0147 0.9995 -0.0267
vn -0.0020 1.0000 0.0070
vn 0.0778 0.9900 -0.1179
vn -0.0102 0.9995 -0.0307
vn -0.0205 0.9990 0.0393
vn -0.0517 0.9975 0.0486
vn 0.0672 0.9966 -0.0482
vn 0.9540 0.0324 0.2981
vn 0.0331 -0.9990 -0.0301
vn 0.8177 0.4564 0.3509
vn -0.0924 0.4089 0.9079
vn -0.9065 0.4109 0.0974
vn -0.7548 0.4252 0.4995
vn -0.6653 0.4611 -0.5872
vn -0.0857 0.4229 -0.9021
vn 0.8671 0.4143 0.2766
vn 0.3063 0.4261 -0.8512
vn -0.1313 0.9897 0.0564
vn -0.0126 0.9999 -0.0051
vn -0.0326 0.9994 -0.0070
vn 0.0193 0.9998 0.0073
vn -0.0230 0.9980 0.0592
vn 0.8889 -0.0277 0.4573
vn 0.2493 -0.4852 -0.8381
vn 0.7005 0.4074 -0.5860
vn -0.0821 0.0032 0.9966
vn -0.0184 0.4436 0.8960
vn -0.5686 0.4055 -0.7157
vn -0.6805 0.7209 -0.1311
vn -0.6362 0.0050 0.7715
vn 0.0220 0.9989 -0.0419
vn 0.0032 0.9997 0.0256
vn -0.0042 0.9993 0.0367
vn -0.0057 0.9995 0.0323
vn -0.0020 0.9967 0.0808
vn 0.0283 0.9991 0.0312
vn 0.2238 -0.9237 -0.3110
vn 0.9674 -0.0106 -0.2530
vn -0.8174 -0.4520 0.3573
vn -0.5063 0.4141 0.7565
vn 0.0177 -0.9036 -0.4279
vn 0.0204 0.9924 -0.1216
vn -0.0056 0.9942 -0.1075
vn 0.0091 0.9897 -0.1426
vn 0.0510 0.9851 -0.1644
vn 0.0063 0.9901 -0.1404
vn -0.3258 0.0580 -0.9437
vn -0.3688 0.1452 -0.9181
vn -0.3318 0.0937 -0.9387
vn -0.3566 0.0907 -0.9298
vn -0.9348 0.1993 -0.2940
vn -0.9226 0.2331 -0.3073
vn -0.9367 0.2016 -0.2864
vn -0.9351 0.2089 -0.2862
vn -0.9332 0.2037 -0.2960
vn 0.5210 0.4189 0.7437
vn 0.7201 -0.4484 0.5296
vn -0.1889 -0.8130 0.5508
vn -0.6381 0.7247 0.2601
vn 0.4349 0.8457 0.3092
vn 0.0041 -0.9995 0.0316
vn 0.3961 0.7698 -0.5005
vn 0.9354 -0.3516 -0.0362
vn 0.9674 -0.0106 -0.2529
vn 0.8721 0.4378 -0.2187
vn -0.2469 -0.9126 0.3258
vn 0.0577 -0.9271 0.3702
vn -0.3585 -0.8500 0.3860
vn -0.5824 -0.8066 0.1005
vn 0.4774 0.6400 0.6020
vn -0.0046 0.6300 0.7766
vn 0.0642 -0.9379 -0.3409
vn -0.6505 0.0032 -0.7595
vn -0.4152 -0.9069 -0.0720
vn -0.1905 -0.9611 -0.2000
vn 0.9367 0.0858 0.3393
vn 0.9072 0.0523 0.4173
vn 0.9071 0.0524 0.4177
vn 0.8514 0.0600 0.5211
vn 0.1250 -0.0444 0.9912
vn 0.1616 -0.0242 0.9866
vn -0.7195 0.6926 0.0515
vn 0.7410 0.2211 0.6341
vn 0.9321 -0.0198 0.3617
vn 0.8996 -0.0354 0.4354
vn 0.6607 0.3747 -0.6505
vn 0.6407 -0.0647 -0.7650
vn 0.7436 0.6628 0.0878
vn 0.6414 -0.0436 -0.7660
vn 0.2647 -0.3914 -0.8813
vn 0.2730 -0.9506 0.1475
vn 0.1139 -0.9578 0.2639
vn -0.4259 0.8313 -0.3573
vn -0.0186 -0.9998 -0.0093
vn -0.3235 -0.2378 -0.9159
vn -0.0501 0.0437 -0.9978
vn -0.9658 -0.2277 0.1243
vn -0.6766 -0.4396 -0.5907
vn 0.0234 0.1350 0.9906
vn 0.1462 0.0627 0.9873
vn 0.2248 -0.0327 0.9739
vn 0.0642 0.0668 0.9957
vn -0.5828 -0.0533 0.8109
vn -0.5408 -0.0165 0.8410
vn -0.4183 -0.2159 0.8823
vn 0.3533 -0.9268 0.1274
vn 0.3136 -0.9442 -0.1003
vn -0.9978 0.0318 0.0584
vn -0.8799 0.4393 0.1814
vn -0.4239 -0.8877 -0.1797
vn -0.8263 -0.0469 -0.5613
vn -0.1717 0.8118 0.5581
vn -0.4964 0.5761 0.6494
vn -0.2746 -0.4988 0.8221
vn -0.5306 -0.2220 0.8180
vn -0.7357 0.3617 0.5726
vn -0.7149 0.3098 0.6269
vn -0.7238 0.2995 0.6217
vn -0.7217 0.3130 0.6174
vn -0.6963 0.3474 0.6280
vn -0.9889 -0.0825 0.1235
vn -0.7709 -0.4985 0.3964
vn -0.9911 -0.0780 0.1076
vn -0.8981 0.3945 -0.1941
vn 0.9885 -0.0450 0.1444
vn 0.6083 -0.5703 0.5520
vn 0.4739 0.8777 0.0712
vn 0.3788 0.9251 -0.0253
vn 0.5067 0.8619 -0.0208
vn 0.2003 0.9792 0.0318
vn 0.9811 0.0747 -0.1788
vn 0.9889 0.0186 -0.1476
vn 0.9843 0.1574 0.0797
vn -0.0842 -0.2214 0.9715
vn 0.5751 -0.1366 0.8066
vn 0.4048 0.1541 -0.9013
vn 0.3435 0.1218 -0.9312
vn 0.3881 0.1319 -0.9121
vn 0.3711 0.1468 -0.9169
vn 0.0631 -0.0505 -0.9967
vn -0.1542 0.4594 -0.8747
vn -0.2961 -0.0998 -0.9499
vn -0.7311 -0.6781 0.0745
vn -0.6683 -0.1058 0.7363
vn 0.5252 0.4231 0.7383
vn 0.5521 0.0057 0.8337
vn -0.1192 -0.3732 -0.9201
vn 0.5392 -0.4913 -0.6840
vn 0.7461 -0.2256 -0.6264
vn 0.9170 -0.1869 0.3523
vn -0.1380 -0.4106 -0.9013
vn -0.5913 -0.2148 -0.7773
vn 0.9093 -0.3952 -0.1307
vn 0.7735 0.6205 0.1290
vn 0.5211 0.8509 -0.0667
vn 0.6863 0.6384 -0.3486
vn 0.3752 0.7873 -0.4892
vn -0.0188 0.7095 -0.7044
vn 0.2952 -0.8946 -0.3354
vn 0.6018 -0.0072 -0.7986
vn -0.8928 -0.2227 -0.3915
vn -0.8400 0.3989 -0.3679
vn 0.9081 0.3999 -0.1240
vn 0.8803 -0.4485 -0.1548
vn -0.4879 -0.8585 0.1577
vn -0.9220 -0.0513 0.3839
vn -0.9443 -0.2387 -0.2267
vn -0.2010 -0.9530 -0.2266
vn -0.0804 0.8365 -0.5421
vn -0.4686 0.6500 -0.5982
vn 0.9781 -0.0363 -0.2049
vn 0.9789 -0.0400 -0.2002
vn 0.3837 -0.9202 -0.0781
vn 0.3006 0.4229 -0.8549
vn 0.3347 -0.1824 -0.9245
vn -0.1462 0.0499 -0.9880
vn -0.7952 0.0387 -0.6051
vn -0.4952 0.8629 0.1011
vn -0.9121 -0.1326 0.3879
vn 0.3809 -0.1136 0.9176
vn -0.0233 -0.0091 0.9997
vn 0.9107 -0.1479 0.3857
vn 0.4942 -0.2319 0.8378
vn -0.1713 -0.0964 0.9805
vn -0.0148 -0.9522 0.3050
vn 0.6090 -0.0564 0.7911
vn 0.0443 0.0216 0.9988
vn 0.2874 -0.4445 0.8484
vn 0.1828 0.8195 0.5431
vn -0.2049 0.0887 -0.9748
vn 0.4861 0.0852 -0.8698
vn -0.5800 0.2496 -0.7754
vn -0.7056 -0.5316 -0.4686
vn 0.5407 -0.2118 -0.8141
vn 0.1555 -0.9847 -0.0782
vn -0.7531 0.4261 0.5013
vn -0.8185 -0.2692 0.5076
vn 0.6292 -0.5566 -0.5424
vn 0.9182 -0.0007 -0.3962
vn -0.9919 -0.0111 -0.1264
vn -0.8754 0.4409 -0.1983
vn 0.7456 -0.0335 -0.6656
vn 0.6999 0.4068 -0.5871
vn 0.2628 0.4818 -0.8360
vn -0.4666 -0.0273 -0.8841
vn 0.2496 0.5071 -0.8250
vn -0.4822 -0.0202 -0.8758
vn -0.1654 -0.9248 -0.3427
vn 0.2493 -0.9257 0.2844
vn 0.6474 0.0008 0.7622
vn 0.0399 0.9974 0.0598
vn 0.0214 0.9727 0.2310
vn 0.0271 0.9927 0.1176
vn 0.5675 0.0829 0.8192
vn 0.6550 0.0246 0.7553
vn 0.5958 0.0395 0.8021
vn -0.4227 0.4412 0.7917
vn -0.4915 -0.0235 0.8706
vn -0.8937 -0.4199 -0.1582
vn -0.6700 0.7301 -0.1342
vn 0.8113 0.1387 -0.5679
vn 0.7859 0.0571 -0.6157
vn 0.8595 0.0412 -0.5094
vn -0.0386 0.9991 0.0156
vn 0.0644 0.9965 -0.0525
vn 0.0528 0.9974 -0.0496
vn 0.0154 0.9995 0.0266
vn 0.0081 0.9999 0.0128
vn 0.0049 0.9981 -0.0607
vn -0.4296 -0.0281 0.9026
vn -0.0090 1.0000 0.0038
vn -0.0008 1.0000 -0.0046
vn -0.0039 1.0000 0.0033
vn -0.0041 1.0000 -0.0088
vn 0.0013 1.0000 0.0043
vn 0.0087 0.9999 0.0118
vn -0.3922 -0.3445 0.8529
vn 0.0124 0.9999 -0.0050
vn 0.0197 0.9973 -0.0714
vn 0.0162 0.9999 -0.0034
vn -0.0426 0.9837 -0.1748
vn -0.3867 -0.1197 -0.9144
vn -0.2809 0.6492 -0.7069
vn -0.4192 -0.0270 -0.9075
vn 0.3377 0.0704 0.9386
vn 0.3889 -0.0868 0.9172
vn 0.3221 0.1010 0.9413
vn -0.0025 0.9999 -0.0129
vn 0.0427 0.9990 -0.0161
vn 0.1986 0.9088 -0.3671
vn -0.9318 -0.1289 -0.3394
vn -0.8804 0.0652 -0.4697
vn -0.9240 -0.0166 -0.3820
vn -0.8445 0.1913 -0.5002
vn -0.8978 0.0492 -0.4376
vn 0.9008 -0.0221 0.4337
vn 0.9208 -0.0826 0.3811
vn 0.8954 0.0913 0.4358
vn 0.9392 -0.1455 0.3111
vn -0.9238 -0.1657 0.3452
vn 0.0003 1.0000 -0.0019
vn 0.0399 0.9982 -0.0448
vn -0.9175 -0.0469 0.3950
vn -0.4864 0.8593 0.1583
vn -0.9135 -0.0115 0.4067
vn -0.9129 -0.0099 0.4080
vn 0.9384 -0.0367 -0.3436
vn 0.9366 0.0513 -0.3466
vn 0.9561 0.0292 -0.2916
vn 0.8962 0.1176 -0.4278
vn 0.0153 -0.8624 0.5061
vn 0.9279 -0.2851 -0.2401
vn -0.0277 0.9996 0.0073
vn -0.0174 0.9998 -0.0016
vn -0.3723 -0.0729 0.9252
vn -0.3407 -0.0174 0.9400
vn -0.4509 0.0232 0.8923
vn 0.4880 -0.0716 -0.8699
vn 0.4117 -0.1188 -0.9036
vn 0.3499 0.0149 -0.9367
vn -0.0175 0.9998 -0.0033
vn -0.0128 0.9999 0.0002
vn -0.3491 0.8996 0.2623
vn 0.3448 -0.4250 0.8369
vn 0.3888 -0.0593 0.9194
vn 0.3876 -0.0622 0.9197
vn 0.5230 0.0076 0.8523
vn -0.2268 0.0126 -0.9739
vn -0.3866 -0.1023 -0.9166
vn -0.4560 0.0124 -0.8899
vn -0.0029 0.9999 0.0146
vn -0.0458 0.9987 0.0218
vn -0.1144 0.9783 0.1727
vn 0.9365 -0.0950 0.3376
vn 0.8694 0.1094 0.4819
vn 0.9251 -0.0013 0.3797
vn 0.8520 0.1477 0.5022
vn -0.8980 0.0651 -0.4353
vn -0.9229 -0.1090 -0.3693
vn -0.8668 0.1567 -0.4734
vn 0.0075 0.9999 0.0091
vn -0.0125 0.9992 0.0367
vn 0.0719 0.9656 0.2500
vn 0.5346 -0.8076 -0.2491
vn 0.8970 -0.0974 -0.4313
vn 0.9272 0.0544 -0.3707
vn 0.9593 0.1285 -0.2513
vn -0.9439 0.0109 0.3300
vn -0.9179 -0.0994 0.3842
vn -0.9269 -0.0620 0.3703
vn 0.2509 0.8373 -0.4858
vn 0.0021 1.0000 0.0089
vn 0.0051 0.9985 0.0536
vn 0.3621 -0.0323 -0.9316
vn 0.2284 0.8320 -0.5056
vn 0.3923 -0.1140 -0.9127
vn 0.3331 -0.0217 -0.9426
vn -0.3832 0.1029 0.9179
vn -0.3594 0.3094 0.8804
usemtl None
s off
f 1//1 2//1 3//1
f 4//2 5//2 6//2
f 7//3 8//3 9//3
f 10//4 11//4 12//4
f 13//5 14//5 15//5
f 16//6 4//6 6//6
f 17//7 8//7 18//7
f 19//8 20//8 21//8
f 22//9 23//9 24//9
f 22//10 25//10 23//10
f 26//11 27//11 28//11
f 29//12 30//12 31//12
f 32//13 33//13 34//13
f 32//14 35//14 33//14
f 36//15 37//15 14//15
f 12//16 11//16 38//16
f 39//17 37//17 36//17
f 40//18 41//18 42//18
f 43//19 44//19 18//19
f 1//20 45//20 2//20
f 46//21 7//21 47//21
f 48//22 49//22 50//22
f 51//23 37//23 39//23
f 52//24 48//24 16//24
f 53//25 25//25 22//25
f 54//26 55//26 56//26
f 57//27 58//27 59//27
f 60//28 61//28 62//28
f 35//29 63//29 33//29
f 37//30 64//30 14//30
f 65//31 38//31 11//31
f 66//32 52//32 16//32
f 13//33 15//33 40//33
f 40//34 42//34 13//34
f 50//35 46//35 47//35
f 67//36 68//36 69//36
f 3//37 2//37 70//37
f 71//38 26//38 28//38
f 71//39 72//39 26//39
f 31//40 73//40 29//40
f 31//41 74//41 73//41
f 75//42 29//42 73//42
f 76//43 34//43 33//43
f 77//44 78//44 79//44
f 37//45 77//45 64//45
f 44//46 68//46 80//46
f 41//47 2//47 45//47
f 5//48 78//48 6//48
f 81//49 82//49 83//49
f 81//50 84//50 82//50
f 85//51 82//51 84//51
f 86//52 87//52 88//52
f 89//53 90//53 33//53
f 90//54 91//54 33//54
f 81//55 92//55 84//55
f 81//56 93//56 92//56
f 92//57 93//57 94//57
f 33//58 95//58 76//58
f 96//59 73//59 74//59
f 96//60 97//60 73//60
f 97//61 95//61 33//61
f 96//62 95//62 97//62
f 39//63 13//63 42//63
f 98//64 39//64 99//64
f 100//65 10//65 101//65
f 80//66 68//66 67//66
f 99//67 102//67 98//67
f 10//68 12//68 101//68
f 103//69 104//69 65//69
f 12//70 105//70 106//70
f 37//71 107//71 77//71
f 66//72 107//72 37//72
f 3//73 70//73 108//73
f 108//74 109//74 110//74
f 111//75 3//75 108//75
f 111//76 97//76 17//76
f 99//77 112//77 102//77
f 112//78 113//78 100//78
f 5//79 93//79 78//79
f 5//80 9//80 8//80
f 17//81 97//81 8//81
f 8//82 114//82 5//82
f 22//83 115//83 116//83
f 22//84 117//84 115//84
f 115//85 117//85 118//85
f 119//86 120//86 121//86
f 122//87 110//87 123//87
f 122//88 108//88 110//88
f 108//89 122//89 124//89
f 117//90 125//90 118//90
f 117//91 126//91 125//91
f 120//92 126//92 121//92
f 120//93 125//93 126//93
f 127//94 79//94 78//94
f 127//95 128//95 79//95
f 79//96 129//96 88//96
f 79//97 128//97 129//97
f 130//98 64//98 117//98
f 109//99 130//99 110//99
f 131//100 132//100 69//100
f 133//101 11//101 10//101
f 11//102 134//102 135//102
f 11//103 135//103 65//103
f 68//104 44//104 43//104
f 131//105 46//105 132//105
f 136//106 137//106 138//106
f 108//107 136//107 139//107
f 137//108 108//108 124//108
f 137//109 136//109 108//109
f 140//110 108//110 139//110
f 140//111 111//111 108//111
f 111//112 140//112 141//112
f 117//113 64//113 126//113
f 64//114 77//114 79//114
f 1//115 3//115 18//115
f 44//116 1//116 18//116
f 8//117 97//117 114//117
f 114//118 97//118 33//118
f 80//119 100//119 113//119
f 80//120 142//120 100//120
f 113//121 41//121 80//121
f 41//122 45//122 80//122
f 143//123 72//123 71//123
f 111//124 143//124 144//124
f 143//125 141//125 72//125
f 143//126 111//126 141//126
f 145//127 75//127 73//127
f 97//128 145//128 73//128
f 97//129 146//129 145//129
f 144//130 97//130 111//130
f 144//131 146//131 97//131
f 12//132 106//132 102//132
f 12//133 102//133 101//133
f 116//134 53//134 22//134
f 121//135 147//135 119//135
f 56//136 119//136 147//136
f 56//137 55//137 119//137
f 121//138 148//138 147//138
f 121//139 126//139 148//139
f 148//140 126//140 149//140
f 113//141 42//141 41//141
f 99//142 39//142 42//142
f 150//143 81//143 83//143
f 78//144 150//144 127//144
f 81//145 150//145 78//145
f 129//146 86//146 88//146
f 93//147 81//147 78//147
f 47//148 48//148 50//148
f 9//149 5//149 4//149
f 133//150 10//150 67//150
f 10//151 100//151 142//151
f 36//152 13//152 39//152
f 14//153 13//153 36//153
f 151//154 50//154 49//154
f 151//155 52//155 103//155
f 66//156 103//156 52//156
f 51//157 39//157 98//157
f 50//158 151//158 132//158
f 50//159 132//159 46//159
f 98//160 103//160 66//160
f 98//161 102//161 106//161
f 103//162 98//162 106//162
f 103//163 106//163 104//163
f 151//164 103//164 65//164
f 151//165 65//165 135//165
f 6//166 78//166 77//166
f 77//167 16//167 6//167
f 43//168 46//168 131//168
f 43//169 7//169 46//169
f 51//170 66//170 37//170
f 98//171 66//171 51//171
f 3//172 111//172 17//172
f 3//173 17//173 18//173
f 67//174 69//174 133//174
f 133//175 134//175 11//175
f 132//176 151//176 135//176
f 132//177 135//177 69//177
f 149//178 79//178 152//178
f 149//179 126//179 79//179
f 126//180 64//180 79//180
f 48//181 52//181 49//181
f 52//182 151//182 49//182
f 47//183 9//183 4//183
f 9//184 47//184 7//184
f 142//185 80//185 67//185
f 10//186 142//186 67//186
f 130//187 109//187 15//187
f 40//188 15//188 70//188
f 64//189 130//189 14//189
f 130//190 15//190 14//190
f 15//191 109//191 70//191
f 108//192 70//192 109//192
f 101//193 102//193 112//193
f 101//194 112//194 100//194
f 42//195 113//195 99//195
f 99//196 113//196 112//196
f 47//197 4//197 48//197
f 16//198 48//198 4//198
f 135//199 134//199 69//199
f 134//200 133//200 69//200
f 104//201 38//201 65//201
f 12//202 38//202 105//202
f 44//203 45//203 1//203
f 44//204 80//204 45//204
f 105//205 38//205 104//205
f 104//206 106//206 105//206
f 7//207 18//207 8//207
f 18//208 7//208 43//208
f 107//209 16//209 77//209
f 107//210 66//210 16//210
f 93//211 153//211 94//211
f 93//212 114//212 153//212
f 153//213 33//213 91//213
f 153//214 114//214 33//214
f 114//215 93//215 5//215
f 110//216 130//216 117//216
f 117//217 22//217 110//217
f 20//218 137//218 21//218
f 20//219 138//219 137//219
f 24//220 154//220 22//220
f 155//221 22//221 154//221
f 110//222 155//222 123//222
f 155//223 110//223 22//223
f 41//224 40//224 2//224
f 40//225 70//225 2//225
f 68//226 43//226 131//226
f 131//227 69//227 68//227
f 156//228 88//228 157//228
f 156//229 79//229 88//229
f 79//230 156//230 152//230
f 58//231 87//231 59//231
f 58//232 88//232 87//232
f 58//233 157//233 88//233
f 82//234 60//234 62//234
f 82//235 85//235 60//235
f 63//236 89//236 33//236
f 158//237 120//237 54//237
f 159//238 160//238 158//238
f 160//239 161//239 158//239
f 161//240 162//240 158//240
f 162//241 163//241 158//241
f 163//242 164//242 158//242
f 164//243 165//243 158//243
f 158//244 125//244 120//244
f 148//245 159//245 158//245
f 148//246 149//246 159//246
f 152//247 159//247 149//247
f 152//248 156//248 159//248
f 158//249 147//249 148//249
f 147//250 54//250 56//250
f 147//251 158//251 54//251
f 159//252 58//252 57//252
f 157//253 159//253 156//253
f 157//254 58//254 159//254
f 160//255 159//255 150//255
f 128//256 150//256 159//256
f 128//257 127//257 150//257
f 159//258 57//258 128//258
f 86//259 129//259 87//259
f 59//260 128//260 57//260
f 59//261 129//261 128//261
f 87//262 129//262 59//262
f 160//263 62//263 61//263
f 83//264 160//264 150//264
f 83//265 82//265 160//265
f 62//266 160//266 82//266
f 161//267 94//267 153//267
f 161//268 160//268 94//268
f 92//269 94//269 160//269
f 160//270 84//270 92//270
f 84//271 60//271 85//271
f 84//272 160//272 60//272
f 60//273 160//273 61//273
f 161//274 153//274 32//274
f 90//275 89//275 91//275
f 63//276 91//276 89//276
f 63//277 35//277 91//277
f 35//278 153//278 91//278
f 35//279 32//279 153//279
f 162//280 95//280 96//280
f 162//281 161//281 95//281
f 161//282 34//282 95//282
f 161//283 32//283 34//283
f 76//284 95//284 34//284
f 162//285 31//285 30//285
f 162//286 96//286 31//286
f 74//287 31//287 96//287
f 163//288 162//288 143//288
f 146//289 143//289 162//289
f 146//290 144//290 143//290
f 162//291 145//291 146//291
f 75//292 162//292 29//292
f 75//293 145//293 162//293
f 30//294 29//294 162//294
f 163//295 28//295 27//295
f 163//296 143//296 28//296
f 71//297 28//297 143//297
f 164//298 163//298 136//298
f 140//299 136//299 163//299
f 140//300 139//300 136//300
f 163//301 27//301 140//301
f 72//302 141//302 26//302
f 26//303 140//303 27//303
f 26//304 141//304 140//304
f 164//305 20//305 19//305
f 138//306 164//306 136//306
f 138//307 20//307 164//307
f 165//308 164//308 155//308
f 122//309 155//309 164//309
f 122//310 123//310 155//310
f 164//311 124//311 122//311
f 164//312 19//312 124//312
f 21//313 124//313 19//313
f 21//314 137//314 124//314
f 165//315 24//315 23//315
f 154//316 165//316 155//316
f 154//317 24//317 165//317
f 158//318 118//318 125//318
f 158//319 165//319 118//319
f 115//320 118//320 165//320
f 165//321 116//321 115//321
f 116//322 25//322 53//322
f 116//323 165//323 25//323
f 25//324 165//324 23//324
f 119//325 54//325 120//325
f 119//326 55//326 54//326
